<svg xmlns="http://www.w3.org/2000/svg" viewBox="0 0 32 32">
    <rect x="0" y="0" width="100%" height="100%" fill="white" />

    <rect x="1" y="1" width="8" height="6" rx="2" fill="#65bcd4" />
    <rect x="11" y="1" width="8" height="6" rx="2" fill="#d5d5d5" />
    <rect x="21" y="1" width="8" height="6" rx="2" fill="#65bcd4" />
    <rect x="31" y="1" width="8" height="6" rx="2" fill="#d5d5d5" />
    
    <rect x="-2" y="9" width="8" height="6" rx="2" fill="#d5d5d5" />
    <rect x="8" y="9" width="8" height="6" rx="2" fill="#65bcd4" />
    <rect x="18" y="9" width="8" height="6" rx="2" fill="#65bcd4" />
    <rect x="28" y="9" width="8" height="6" rx="2" fill="#d5d5d5" />

    <rect x="-7" y="17" width="8" height="6" rx="2" fill="#d5d5d5" />
    <rect x="3" y="17" width="8" height="6" rx="2" fill="#d5d5d5" />
    <rect x="13" y="17" width="8" height="6" rx="2" fill="#65bcd4" />
    <rect x="23" y="17" width="8" height="6" rx="2" fill="#d5d5d5" />

    <rect x="-3" y="25" width="8" height="6" rx="2" fill="#d5d5d5" />
    <rect x="7" y="25" width="8" height="6" rx="2" fill="#65bcd4" />
    <rect x="17" y="25" width="8" height="6" rx="2" fill="#d5d5d5" />
    <rect x="27" y="25" width="8" height="6" rx="2" fill="#65bcd4" />
</svg>